<mxfile host="app.diagrams.net" agent="Mozilla/5.0 (X11; Linux x86_64) AppleWebKit/537.36 (KHTML, like Gecko) Chrome/133.0.0.0 Safari/537.36" version="27.2.0">
  <diagram name="Page-1" id="idAHmjGJpQJLajuzXUct">
    <mxGraphModel dx="1151" dy="1226" grid="1" gridSize="10" guides="1" tooltips="1" connect="1" arrows="1" fold="1" page="1" pageScale="1" pageWidth="850" pageHeight="1100" math="0" shadow="0">
      <root>
        <mxCell id="0" />
        <mxCell id="1" parent="0" />
        <mxCell id="nl9xAqsTV8wFBkjVF2cx-34" value="" style="edgeStyle=orthogonalEdgeStyle;rounded=0;orthogonalLoop=1;jettySize=auto;html=1;" edge="1" parent="1" source="nl9xAqsTV8wFBkjVF2cx-24" target="nl9xAqsTV8wFBkjVF2cx-25">
          <mxGeometry relative="1" as="geometry" />
        </mxCell>
        <mxCell id="nl9xAqsTV8wFBkjVF2cx-24" value="&lt;font style=&quot;font-size: 18px; color: light-dark(rgb(26, 64, 255), rgb(0, 0, 0));&quot;&gt;&lt;b&gt;Start&lt;/b&gt;&lt;/font&gt;" style="rounded=1;whiteSpace=wrap;html=1;labelBackgroundColor=none;fillColor=#BC6C25;strokeColor=#DDA15E;fontColor=#FEFAE0;" vertex="1" parent="1">
          <mxGeometry x="212" y="90" width="75" height="40" as="geometry" />
        </mxCell>
        <mxCell id="nl9xAqsTV8wFBkjVF2cx-35" value="" style="edgeStyle=orthogonalEdgeStyle;rounded=0;orthogonalLoop=1;jettySize=auto;html=1;" edge="1" parent="1" source="nl9xAqsTV8wFBkjVF2cx-25" target="nl9xAqsTV8wFBkjVF2cx-26">
          <mxGeometry relative="1" as="geometry" />
        </mxCell>
        <mxCell id="nl9xAqsTV8wFBkjVF2cx-25" value="&lt;b style=&quot;color: rgb(0, 0, 0); font-size: 18px;&quot;&gt;take inp init points, obs co-or&lt;/b&gt;" style="shape=parallelogram;perimeter=parallelogramPerimeter;whiteSpace=wrap;html=1;fixedSize=1;labelBackgroundColor=none;fillColor=#BC6C25;strokeColor=#DDA15E;fontColor=#FEFAE0;" vertex="1" parent="1">
          <mxGeometry x="107" y="180" width="285" height="40" as="geometry" />
        </mxCell>
        <mxCell id="nl9xAqsTV8wFBkjVF2cx-36" value="" style="edgeStyle=orthogonalEdgeStyle;rounded=0;orthogonalLoop=1;jettySize=auto;html=1;" edge="1" parent="1" source="nl9xAqsTV8wFBkjVF2cx-26" target="nl9xAqsTV8wFBkjVF2cx-29">
          <mxGeometry relative="1" as="geometry" />
        </mxCell>
        <mxCell id="nl9xAqsTV8wFBkjVF2cx-26" value="&lt;b style=&quot;color: rgb(0, 0, 0); font-size: 18px;&quot;&gt;while i==0&lt;/b&gt;" style="rhombus;whiteSpace=wrap;html=1;strokeColor=#DDA15E;fontColor=#FEFAE0;fillColor=#BC6C25;labelBackgroundColor=none;" vertex="1" parent="1">
          <mxGeometry x="192" y="270" width="114.37" height="113" as="geometry" />
        </mxCell>
        <mxCell id="nl9xAqsTV8wFBkjVF2cx-37" value="" style="edgeStyle=orthogonalEdgeStyle;rounded=0;orthogonalLoop=1;jettySize=auto;html=1;" edge="1" parent="1" source="nl9xAqsTV8wFBkjVF2cx-29" target="nl9xAqsTV8wFBkjVF2cx-31">
          <mxGeometry relative="1" as="geometry" />
        </mxCell>
        <mxCell id="nl9xAqsTV8wFBkjVF2cx-29" value="&lt;b style=&quot;color: rgb(0, 0, 0); font-size: 18px;&quot;&gt;Input next move&lt;/b&gt;" style="shape=parallelogram;perimeter=parallelogramPerimeter;whiteSpace=wrap;html=1;fixedSize=1;labelBackgroundColor=none;fillColor=#BC6C25;strokeColor=#DDA15E;fontColor=#FEFAE0;" vertex="1" parent="1">
          <mxGeometry x="107" y="423" width="285" height="40" as="geometry" />
        </mxCell>
        <mxCell id="nl9xAqsTV8wFBkjVF2cx-42" value="" style="edgeStyle=orthogonalEdgeStyle;rounded=0;orthogonalLoop=1;jettySize=auto;html=1;" edge="1" parent="1" source="nl9xAqsTV8wFBkjVF2cx-31" target="nl9xAqsTV8wFBkjVF2cx-41">
          <mxGeometry relative="1" as="geometry" />
        </mxCell>
        <mxCell id="nl9xAqsTV8wFBkjVF2cx-46" style="edgeStyle=orthogonalEdgeStyle;rounded=0;orthogonalLoop=1;jettySize=auto;html=1;entryX=0;entryY=0.5;entryDx=0;entryDy=0;" edge="1" parent="1" source="nl9xAqsTV8wFBkjVF2cx-31" target="nl9xAqsTV8wFBkjVF2cx-26">
          <mxGeometry relative="1" as="geometry">
            <mxPoint x="60" y="330" as="targetPoint" />
            <Array as="points">
              <mxPoint x="60" y="580" />
              <mxPoint x="60" y="326" />
            </Array>
          </mxGeometry>
        </mxCell>
        <mxCell id="nl9xAqsTV8wFBkjVF2cx-31" value="&lt;b style=&quot;color: rgb(0, 0, 0); font-size: 18px;&quot;&gt;chk next move dir do not touch the boundary or hit the obstacle&lt;/b&gt;" style="rhombus;whiteSpace=wrap;html=1;strokeColor=#DDA15E;fontColor=#FEFAE0;fillColor=#BC6C25;labelBackgroundColor=none;" vertex="1" parent="1">
          <mxGeometry x="103" y="520" width="291.25" height="120" as="geometry" />
        </mxCell>
        <mxCell id="nl9xAqsTV8wFBkjVF2cx-40" value="&lt;font style=&quot;font-size: 18px; color: light-dark(rgb(26, 64, 255), rgb(0, 0, 0));&quot;&gt;&lt;b&gt;Start&lt;/b&gt;&lt;/font&gt;" style="rounded=1;whiteSpace=wrap;html=1;labelBackgroundColor=none;fillColor=#BC6C25;strokeColor=#DDA15E;fontColor=#FEFAE0;" vertex="1" parent="1">
          <mxGeometry x="211.12" y="700" width="75" height="40" as="geometry" />
        </mxCell>
        <mxCell id="nl9xAqsTV8wFBkjVF2cx-48" style="edgeStyle=orthogonalEdgeStyle;rounded=0;orthogonalLoop=1;jettySize=auto;html=1;entryX=1;entryY=0.5;entryDx=0;entryDy=0;" edge="1" parent="1" source="nl9xAqsTV8wFBkjVF2cx-41" target="nl9xAqsTV8wFBkjVF2cx-40">
          <mxGeometry relative="1" as="geometry">
            <mxPoint x="605.5000000000002" y="710" as="targetPoint" />
            <Array as="points">
              <mxPoint x="606" y="720" />
            </Array>
          </mxGeometry>
        </mxCell>
        <mxCell id="nl9xAqsTV8wFBkjVF2cx-41" value="&lt;b style=&quot;color: rgb(0, 0, 0); font-size: 18px;&quot;&gt;Game ovr&lt;/b&gt;" style="shape=parallelogram;perimeter=parallelogramPerimeter;whiteSpace=wrap;html=1;fixedSize=1;labelBackgroundColor=none;fillColor=#BC6C25;strokeColor=#DDA15E;fontColor=#FEFAE0;" vertex="1" parent="1">
          <mxGeometry x="463" y="560" width="285" height="40" as="geometry" />
        </mxCell>
        <mxCell id="nl9xAqsTV8wFBkjVF2cx-43" value="YES" style="text;html=1;align=center;verticalAlign=middle;resizable=0;points=[];autosize=1;strokeColor=none;fillColor=none;" vertex="1" parent="1">
          <mxGeometry x="408" y="548" width="50" height="30" as="geometry" />
        </mxCell>
        <mxCell id="nl9xAqsTV8wFBkjVF2cx-47" value="NO" style="text;html=1;align=center;verticalAlign=middle;resizable=0;points=[];autosize=1;strokeColor=none;fillColor=none;" vertex="1" parent="1">
          <mxGeometry x="60" y="438" width="40" height="30" as="geometry" />
        </mxCell>
      </root>
    </mxGraphModel>
  </diagram>
</mxfile>
